<svg
    xmlns="http://www.w3.org/2000/svg"
    width="166"
    height="166"
    viewBox="0 0 166 166"
    fill="none"
>
    <path
        fill-rule="evenodd"
        clip-rule="evenodd"
        d="m 158.69768,66.40317 c -0.40622,-0.01042 -0.81963,0.0089 -1.20806,0.148684 -10.76514,3.283632 -27.91237,5.754821 -32.14087,1.2876 -0.51056,-1.737551 2.42709,-8.606464 5.92546,-13.969977 1.10028,-1.49403 2.75431,-4.397468 1.46348,-7.053456 -0.3667,-0.770753 -1.53535,-2.548662 -4.32914,-2.548662 -4.37223,0 -6.51147,4.083589 -7.11556,6.61409 -1.57468,7.635996 -6.20959,11.538815 -10.24017,13.520099 0.9815,-4.448822 0.75872,-8.606488 0.70839,-9.32211 -0.1186,-1.774389 -1.45622,-3.209319 -3.1786,-3.408516 -1.75467,-0.231976 -3.3402,0.885327 -3.84718,2.585743 -0.0935,0.319926 -0.81265,2.02907 -1.95246,2.482797 -1.03911,0.41377 -2.51327,-0.260331 -3.570368,-0.896399 -3.796933,-2.287377 -5.623467,-11.74175 -5.43293,-28.091222 l 0.01331,-1.929151 c 0,-1.073346 0.190575,-1.427606 0.262651,-1.376051 0.999539,-0.593733 3.333048,-1.984643 3.333048,-6.00189 C 97.388681,7.1566358 87.274351,0 83.006431,0 c -4.267984,0 -14.38229,7.1566358 -14.38229,18.444749 0,4.017247 2.333544,5.408157 3.444528,5.950335 9.86e-4,9.81e-4 0.150938,0.356375 0.150938,1.427606 l 0.01223,1.925638 c 0.190233,16.353029 -1.639607,25.803941 -5.432908,28.090998 -1.049897,0.634552 -2.520451,1.305761 -3.552435,0.903603 -1.093051,-0.419779 -1.815774,-2.002655 -1.973963,-2.490056 -0.50698,-1.700376 -2.096211,-2.822068 -3.847251,-2.585789 -1.722275,0.198721 -3.059824,1.630675 -3.178478,3.408648 -0.04994,0.715963 -0.269542,4.866111 0.704717,9.310936 -4.038106,-1.995879 -8.676393,-5.924525 -10.262032,-13.619787 -0.575568,-2.415933 -2.714983,-6.499522 -7.087133,-6.499522 -2.793796,0 -3.962376,1.777909 -4.332673,2.545185 -1.287223,2.656082 0.36316,5.559538 1.348295,6.887517 3.617196,5.529429 6.55472,12.39821 6.227506,13.844644 -4.407845,4.754522 -21.558713,2.279266 -32.3274597,-0.996024 -0.3919061,-0.11869 -0.8090031,-0.182893 -1.2045137,-0.149556 -1.6503697,0.08559 -6.68417304,0.351546 -7.2630586,4.382392 -0.5716981,3.958 3.8544531,5.592373 6.2311248,6.466792 2.3227417,0.851909 5.3322392,1.854946 8.6545532,2.958318 7.913831,2.626646 26.294446,8.728096 28.509248,12.305944 -0.136395,2.564271 -2.038681,4.865531 -4.231952,7.518619 -2.915991,3.5301 -6.547551,7.92741 -6.547551,14.32404 0,15.18346 4.436949,27.43459 13.188558,36.39849 C 60.539883,165.80431 81.958717,166 82.99784,166 c 9.85e-4,0 9.85e-4,0 0.0019,0 1.039114,0 22.45811,-0.1943 37.14221,-15.24628 8.75545,-8.9639 13.19224,-21.21503 13.19224,-36.3985 0,-6.39662 -3.63146,-10.79394 -6.54737,-14.32412 -2.19332,-2.653008 -4.09556,-4.954258 -4.23205,-7.518547 2.21472,-3.57783 20.59556,-9.679326 28.50914,-12.305938 3.32243,-1.10336 6.3282,-2.103023 8.6547,-2.958341 2.37664,-0.874538 6.80259,-2.508789 6.23095,-6.466757 -0.57879,-4.024628 -5.60914,-4.294201 -7.26288,-4.378841 z m -75.690337,7.36686 c 0,0 17.977827,0.367643 17.977827,11.073605 0,7.868631 -17.977827,7.378445 -17.977827,7.378445 0,0 -17.977821,0.490186 -17.977821,-7.378445 0,-10.704887 17.977821,-11.073605 17.977821,-11.073605 z m 0,73.78597 c 0,0 -32.360105,-0.49469 -32.360105,-29.51219 0,-9.63873 6.054883,-14.75545 10.786699,-14.75545 4.731784,0 13.307183,3.68913 21.573406,3.68913 8.266229,0 16.841691,-3.68913 21.573427,-3.68913 4.73181,0 10.78678,5.11672 10.78678,14.75545 0,29.0175 -32.360207,29.51219 -32.360207,29.51219 z"
        fill="#c8c8c8"
    />
</svg>
